<svg width="94" height="32" xmlns="http://www.w3.org/2000/svg"><g fill="none"><path d="M43.207 28.45c-.055.003-.113.003-.172.003-3.418 0-5.539-2.77-5.539-7.234 0-4.465 2.14-7.235 5.582-7.235.125 0 .246.004.367.012 3.203.191 5.176 2.922 5.176 7.223 0 4.386-2.07 7.14-5.414 7.23m.293-17.816s-.164-.008-.246-.004c-.074-.004-.145-.004-.219-.004-2.336 0-4.394.648-6.031 1.895V2.926h-3.902v28.496h3.402l.246-1.606c1.645 1.329 3.805 1.997 6.328 1.997h.074c2.871-.016 5.309-1.008 7.063-2.872 1.777-1.894 2.722-4.566 2.722-7.722 0-6.27-3.687-10.375-9.437-10.586m20.363 17.82c-3.414 0-5.539-2.77-5.539-7.234 0-4.465 2.14-7.235 5.582-7.235 3.418 0 5.543 2.77 5.543 7.235s-2.14 7.234-5.586 7.234m0-17.828c-2.894 0-5.363.996-7.133 2.887-1.78 1.898-2.722 4.566-2.722 7.707 0 6.437 3.133 10.593 9.898 10.593 2.903 0 5.367-.992 7.133-2.87 1.785-1.895 2.723-4.567 2.723-7.723 0-6.438-3.883-10.594-9.899-10.594m20.469 3.141c-3.543 0-5.102 2.925-5.312 5.398h10.207c0-2.762-1.395-5.398-4.895-5.398zm-5.312 8.441c.043 4.094 2.144 6.25 5.93 6.25 3.737 0 5.921-2.066 6.144-2.285l1.699 2.75s-2.688 2.86-8.32 2.86c-5.633 0-9.637-3.876-9.637-10.52 0-6.688 4.18-10.606 9.637-10.606 5.457 0 8.672 4.094 8.672 9.903l-.043 1.625-14.082.023z" fill="#1D2953"/><path fill="#33B540" d="M25.66 12.516l-2.558-2.559 2.558-2.559 2.559 2.559zm.004-7.395l-2.559-2.559 2.56-2.558 2.558 2.558zM29.36 8.82L26.8 6.262l1.423-1.418 1.136-1.14 2.559 2.558z"/><path d="M14.387 27.875c-5.715 0-9.43-4.598-9.43-11.332 0-6.734 3.902-11.336 9.566-11.336 4.157 0 6.004 2.106 7.446 3.61l2.554-2.563c-1.367-1.395-4.085-4.809-10.136-4.809C6.907 1.445.5 7.066.5 16.59c0 9.52 5.758 15.187 13.7 15.187 5.902 0 9.109-3.129 10.366-4.734l-2.652-2.656c-1.152 1.347-3.61 3.488-7.527 3.488" fill="#1D2953"/></g></svg>