<svg xmlns="http://www.w3.org/2000/svg" xmlns:xlink="http://www.w3.org/1999/xlink" viewBox="0 0 48 48"><defs><style>.cls-1{fill:#ffce52;}.cls-2{fill:url(#radial-gradient);}.cls-3{fill:#ffb32b;}.cls-4{fill:#273941;}.cls-5{fill:#141e21;}.cls-6{fill:#f6fafd;}.cls-7{fill:#3bc5f6;}.cls-8{fill:#00a3e1;}</style><radialGradient id="radial-gradient" cx="-27.957" cy="8.563" r="6" gradientTransform="translate(107.871 -4.408) scale(3 2.5)" gradientUnits="userSpaceOnUse"><stop offset="0" stop-color="#5987dd"/><stop offset="0.118" stop-color="#638bd6"/><stop offset="0.316" stop-color="#7d98c3"/><stop offset="0.572" stop-color="#a8aba3"/><stop offset="0.871" stop-color="#e3c678"/><stop offset="1" stop-color="#ffd364"/></radialGradient></defs><title>27-feel bad</title><g id="_27-feel_bad" data-name="27-feel bad"><circle class="cls-1" cx="24" cy="24" r="23"/><ellipse class="cls-2" cx="24" cy="17" rx="18" ry="15"/><path class="cls-3" d="M46,23c0,10.493-9.85,19-22,19S2,33.493,2,23H1.025c-.014.332-.025.665-.025,1a23,23,0,0,0,46,0c0-.335-.011-.668-.025-1Z"/><ellipse class="cls-4" cx="33" cy="23" rx="3" ry="4"/><ellipse class="cls-5" cx="33" cy="23" rx="2" ry="3"/><circle class="cls-6" cx="34" cy="22" r="1"/><ellipse class="cls-4" cx="15" cy="23" rx="3" ry="4"/><ellipse class="cls-5" cx="15" cy="23" rx="2" ry="3"/><circle class="cls-6" cx="16" cy="22" r="1"/><path class="cls-5" d="M10,19V17c3.722,0,6-1.295,6-2h2C18,17.626,13.976,19,10,19Z"/><path class="cls-5" d="M38,19c-3.976,0-8-1.374-8-4h2c0,.705,2.278,2,6,2Z"/><path class="cls-4" d="M24,35H18.5A5.265,5.265,0,0,1,24,30a5.265,5.265,0,0,1,5.5,5Z"/><path class="cls-5" d="M24,31a5.4,5.4,0,0,1,5.39,4h.11A5.265,5.265,0,0,0,24,30a5.265,5.265,0,0,0-5.5,5h.11A5.4,5.4,0,0,1,24,31Z"/><path class="cls-7" d="M47,12a4,4,0,0,1-8,0c0-2.209,3-8,4-8S47,9.791,47,12Z"/><path class="cls-8" d="M43,4c-1,0-4,5.791-4,8a4,4,0,0,0,8,0C47,9.791,44,4,43,4Zm0,8.5a2.848,2.848,0,0,1-3-2.667C40,8.361,42.25,4.5,43,4.5s3,3.861,3,5.333A2.848,2.848,0,0,1,43,12.5Z"/><path class="cls-3" d="M43,16a3.991,3.991,0,0,1-3.861-3.008A4.661,4.661,0,0,0,39,14a4,4,0,0,0,6.846,2.807q-.255-.777-.562-1.529A3.982,3.982,0,0,1,43,16Z"/><ellipse class="cls-6" cx="44" cy="11" rx="0.825" ry="1.148" transform="translate(5.117 34.348) rotate(-45.02)"/><ellipse class="cls-6" cx="44.746" cy="9.5" rx="0.413" ry="0.574" transform="translate(6.397 34.436) rotate(-45.02)"/><ellipse class="cls-6" cx="36" cy="9" rx="0.825" ry="1.148" transform="translate(4.187 28.103) rotate(-45.02)"/><ellipse class="cls-6" cx="29.746" cy="4.5" rx="0.413" ry="0.574" transform="translate(5.536 22.36) rotate(-45.02)"/><ellipse class="cls-6" cx="33" cy="7" rx="1.65" ry="2.297" transform="translate(4.722 25.394) rotate(-45.02)"/></g></svg>