<svg xmlns="http://www.w3.org/2000/svg" viewBox="0 0 48 48"><defs><style>.cls-1{fill:#ffce52;}.cls-2{fill:#273941;}.cls-3{fill:#ffe369;}.cls-4{fill:#ffb32b;}.cls-5{fill:#f6fafd;}</style></defs><title>03-smile</title><g id="_03-smile" data-name="03-smile"><circle class="cls-1" cx="24" cy="24" r="23"/><path class="cls-2" d="M24,39c-7.168,0-13-4.935-13-11h2c0,4.962,4.935,9,11,9s11-4.038,11-9h2C37,34.065,31.168,39,24,39Z"/><path class="cls-2" d="M20,21H18c0-2.206-1.346-4-3-4s-3,1.794-3,4H10c0-3.309,2.243-6,5-6S20,17.691,20,21Z"/><path class="cls-2" d="M38,21H36c0-2.206-1.346-4-3-4s-3,1.794-3,4H28c0-3.309,2.243-6,5-6S38,17.691,38,21Z"/><path class="cls-3" d="M24,4c12.15,0,22,8.507,22,19h.975a23,23,0,0,0-45.95,0H2C2,12.507,11.85,4,24,4Z"/><path class="cls-4" d="M46,23c0,10.493-9.85,19-22,19S2,33.493,2,23H1.025c-.014.332-.025.665-.025,1a23,23,0,0,0,46,0c0-.335-.011-.668-.025-1Z"/><ellipse class="cls-5" cx="37" cy="9" rx="0.825" ry="1.148" transform="translate(4.48 28.81) rotate(-45.02)"/><ellipse class="cls-5" cx="30.746" cy="4.5" rx="0.413" ry="0.574" transform="translate(5.829 23.067) rotate(-45.02)"/><ellipse class="cls-5" cx="34" cy="7" rx="1.65" ry="2.297" transform="translate(5.015 26.102) rotate(-45.02)"/></g></svg>